<?xml version="1.0" encoding="UTF-8"?>
<svg width="512px" height="512px" viewBox="0 0 512 512" version="1.1" xmlns="http://www.w3.org/2000/svg" xmlns:xlink="http://www.w3.org/1999/xlink">
    <title>男生-黄</title>
    <defs>
        <polygon id="path-1" points="0.20412 0.06188 50.464 0.06188 50.464 58.83188 0.20412 58.83188"></polygon>
        <polygon id="path-3" points="0.0978719872 0.0348 225.088829 0.0348 225.088829 121.134985 0.0978719872 121.134985"></polygon>
    </defs>
    <g id="男生-黄" stroke="none" stroke-width="1" fill="none" fill-rule="evenodd">
        <rect id="矩形" fill="#FEECD6" x="0" y="0" width="512" height="512"></rect>
        <g id="编组" transform="translate(122.000000, 157.000000)">
            <polygon id="Fill-1" fill="#FFBBBA" points="108.7804 290.9568 156.7956 290.9568 156.7956 227.8408 108.7804 227.8408"></polygon>
            <g transform="translate(0.000000, 0.365200)">
                <path d="M108.5744,258.3728 C118.169108,260.879665 126.788175,262.133097 134.4316,262.133097 C142.075025,262.133097 149.461025,260.879665 156.5896,258.3728 L156.5896,195.2568 L108.5744,195.2568 L108.5744,258.3728 Z" id="Fill-1" fill="#FB918D"></path>
                <path d="M50.25984,182.24668 C50.25984,198.47548 39.00904,211.63188 25.13024,211.63188 C11.25144,211.63188 0.00024,198.47548 0.00024,182.24668 C0.00024,166.01788 11.25144,152.86188 25.13024,152.86188 C39.00904,152.86188 50.25984,166.01788 50.25984,182.24668" id="Fill-2" fill="#FFBBBA"></path>
                <g transform="translate(217.600000, 152.800000)">
                    <mask id="mask-2" fill="white">
                        <use xlink:href="#path-1"></use>
                    </mask>
                    <g id="Clip-7"></g>
                    <path d="M50.46412,29.44668 C50.46412,45.67548 39.21292,58.83188 25.33412,58.83188 C11.45532,58.83188 0.20412,45.67548 0.20412,29.44668 C0.20412,13.21788 11.45532,0.06188 25.33412,0.06188 C39.21292,0.06188 50.46412,13.21788 50.46412,29.44668" id="Fill-6" fill="#FFBBBA" mask="url(#mask-2)"></path>
                </g>
                <path d="M133.85724,254.54312 C108.3734,254.54312 36.91244,230.28752 36.91244,176.74632 C36.91244,123.20512 39.02124,37.04312 133.85724,37.04312 C228.69324,37.04312 230.80164,123.20512 230.80164,176.74632 C230.80164,230.28752 159.34108,254.54312 133.85724,254.54312 Z" id="Fill-10" fill="#FFBBBA"></path>
                <path d="M133.85724,247.54312 C108.3734,247.54312 36.91244,223.28752 36.91244,169.74632 C36.91244,116.20512 39.02124,30.04312 133.85724,30.04312 C228.69324,30.04312 230.80164,116.20512 230.80164,169.74632 C230.80164,223.28752 159.34108,247.54312 133.85724,247.54312 Z" id="Fill-10" fill="#FFD5D6"></path>
                <path d="M141.28328,177.9998 C141.28328,181.9998 125.99168,181.9998 125.99168,177.9998 C125.99168,173.5998 129.41488,170.3542 133.63768,170.3542 C137.86008,170.3542 141.28328,173.5998 141.28328,177.9998" id="Fill-16" fill="#E8B39F"></path>
                <path d="M210.62548,354.20724 L54.95068,354.20724 C54.95068,313.55684 87.90388,280.60364 128.55428,280.60364 L137.02188,280.60364 C177.67228,280.60364 210.62548,313.55684 210.62548,354.20724" id="Fill-18" fill="#FFBBBA"></path>
                <path d="M169.11336,287.6002 C163.48536,300.8842 150.34936,310.2038 135.01376,310.2038 C119.03096,310.2038 105.59656,300.081 100.40376,285.897 C73.48096,297.0142 54.71576,323.6022 54.71576,354.5402 L54.71576,354.7998 L211.11576,354.7998 L211.11576,354.5402 C211.11576,325.0882 193.98976,299.567 169.11336,287.6002" id="Fill-20" fill="#F5A623"></path>
                <path d="M176.84148,121.12208 C171.91188,122.33128 165.93428,123.57328 159.34108,125.15608" id="Stroke-24" stroke="#8A6530" stroke-width="8" stroke-linecap="round"></path>
                <path d="M112.21608,155.32756 C112.21608,160.55996 107.97448,164.80156 102.74208,164.80156 C97.50968,164.80156 93.26808,160.55996 93.26808,155.32756 C93.26808,150.09516 97.50968,145.85316 102.74208,145.85316 C107.97448,145.85316 112.21608,150.09516 112.21608,155.32756" id="Fill-26" fill="#000000"></path>
                <path d="M174.44576,155.32756 C174.44576,160.55996 170.20416,164.80156 164.97176,164.80156 C159.73936,164.80156 155.49776,160.55996 155.49776,155.32756 C155.49776,150.09516 159.73936,145.85316 164.97176,145.85316 C170.20416,145.85316 174.44576,150.09516 174.44576,155.32756" id="Fill-28" fill="#000000"></path>
                <path d="M147.637313,187.902023 C147.94711,186.841788 149.057741,186.233437 150.117977,186.543233 C151.178212,186.85303 151.786563,187.963661 151.476767,189.023897 C149.948726,194.253399 146.159438,198.756235 141.267956,201.154702 C136.376234,203.553288 130.49612,203.791822 125.426429,201.797307 C124.398546,201.392917 123.893104,200.231831 124.297493,199.203949 C124.701883,198.176066 125.862969,197.670624 126.890851,198.075013 C130.914738,199.658089 135.624225,199.467043 139.506924,197.563218 C143.389416,195.659494 146.424421,192.052977 147.637313,187.902023 Z" id="Stroke-30" fill="#D06946" fill-rule="nonzero"></path>
                <path d="M42.15748,107.49316 C43.44588,109.28356 43.58708,111.62716 43.68228,113.83076 C44.38028,130.03276 45.07828,146.23476 45.77588,162.43676 C41.57268,160.20396 37.22988,157.85476 34.37108,154.04996 C31.29628,149.95636 30.32508,144.68876 29.71588,139.60556 C28.10868,126.19916 28.40548,112.56556 30.59508,99.24116 C32.12188,103.85836 39.31668,103.54596 42.15748,107.49316" id="Fill-32" fill="#614536"></path>
                <path d="M225.91608,107.49316 C224.62728,109.28356 224.48648,111.62716 224.39128,113.83076 C223.69328,130.03276 222.99528,146.23476 222.29768,162.43676 C226.50088,160.20396 230.84368,157.85476 233.70248,154.04996 C236.77728,149.95636 237.74848,144.68876 238.35768,139.60556 C239.96488,126.19916 239.66808,112.56556 237.47848,99.24116 C235.95168,103.85836 228.75688,103.54596 225.91608,107.49316" id="Fill-34" fill="#614536"></path>
                <g transform="translate(21.200000, 0.000000)">
                    <mask id="mask-4" fill="white">
                        <use xlink:href="#path-3"></use>
                    </mask>
                    <g id="Clip-37"></g>
                    <path d="M138.73912,105.48 C140.62312,111.1156 127.95392,117.0832 122.07872,117.9724 C61.9720803,127.068102 45.1251625,130.720232 29.05984,117.9724 C20.7084629,111.345583 -0.889666602,102.578767 0.36232,82.9696 C3.96712,26.5092 67.81072,-4.8804 118.39952,11.2644 C126.67352,13.786 140.27632,17.8292 146.89152,23.394 C163.44312,37.888 155.32712,24.5744 175.87792,24.134 C198.37752,23.6516 214.32872,41.9136 220.75672,62.2 C225.816797,78.1702204 210.781963,90.1298042 207.781005,99.24116 C201.52065,118.248532 195.980968,123.659131 172.24312,118.8 C167.94672,117.9204 164.56592,114.6132 163.56872,110.3424 C161.24992,100.4148 169.91552,57 147.51552,65.8476 C137.21552,56.7476 132.21352,70.476 131.35552,73.3416 C128.91592,81.4912 135.21632,94.9424 138.73912,105.48 Z" id="Fill-36" fill="#FFBBBA" mask="url(#mask-4)"></path>
                    <path d="M126.35552,66.3416 C123.91592,74.4912 126.21632,87.9424 129.73912,98.48 C131.62312,104.1156 127.95392,110.0832 122.07872,110.9724 C30.72632,124.7964 -3.29808,133.3004 0.36232,75.9696 C3.96712,19.5092 67.81072,-11.8804 118.39952,4.2644 C126.67352,6.786 140.27632,10.8292 146.89152,16.394 C163.44312,30.888 155.32712,17.5744 175.87792,17.134 C198.37752,16.6516 214.32872,34.9136 220.75672,55.2 C236.37272,104.486 207.35992,118.9884 172.24312,111.8 C167.94672,110.9204 164.56592,107.6132 163.56872,103.3424 C161.24992,93.4148 169.91552,50 147.51552,58.8476 C137.21552,49.7476 127.21352,63.476 126.35552,66.3416" id="Fill-36" fill="#614536" mask="url(#mask-4)"></path>
                </g>
                <path d="M91.1278,121.12208 C96.5678,122.40048 102.6062,123.74488 108.6282,125.15608" id="Stroke-22" stroke="#8A6530" stroke-width="8" stroke-linecap="round"></path>
                <g id="眼镜" transform="translate(44.326760, 129.919440)" fill="#FFBBBA" fill-rule="nonzero">
                    <path d="M39.9304,4.54747351e-13 C14.3249134,4.54747351e-13 -2,11.1286254 -2,32.73 C-2,55.4016967 16.2241309,71.8604 39.9304,71.8604 C63.6363296,71.8604 81.8604,55.4016375 81.8604,32.73 C81.8604,11.1286715 65.535532,4.54747351e-13 39.9304,4.54747351e-13 Z M39.9304,4 C63.579312,4 77.8604,13.7354256 77.8604,32.73 C77.8604,53.0964702 61.512944,67.8604 39.9304,67.8604 C18.3475111,67.8604 2,53.0965226 2,32.73 C2,13.7353873 16.2811308,4 39.9304,4 Z" id="Stroke-38"></path>
                    <path d="M139.13044,4.54747351e-13 C113.524953,4.54747351e-13 97.20004,11.1286254 97.20004,32.73 C97.20004,55.4016967 115.424171,71.8604 139.13044,71.8604 C162.83637,71.8604 181.06044,55.4016375 181.06044,32.73 C181.06044,11.1286715 164.735572,4.54747351e-13 139.13044,4.54747351e-13 Z M139.13044,4 C162.779352,4 177.06044,13.7354256 177.06044,32.73 C177.06044,53.0964702 160.712984,67.8604 139.13044,67.8604 C117.547551,67.8604 101.20004,53.0965226 101.20004,32.73 C101.20004,13.7353873 115.481171,4 139.13044,4 Z" id="Stroke-40"></path>
                    <path d="M102.38892,25.88036 C103.493489,25.88036 104.38892,26.7757905 104.38892,27.88036 C104.38892,28.9347218 103.573042,29.7985251 102.538182,29.8748743 L102.38892,29.88036 L76.38892,29.88036 C75.2843505,29.88036 74.38892,28.9849295 74.38892,27.88036 C74.38892,26.8259982 75.2047978,25.9621949 76.2396577,25.8858457 L76.38892,25.88036 L102.38892,25.88036 Z" id="Stroke-42"></path>
                </g>
                <g id="眼镜" transform="translate(42.326760, 124.919440)" fill="#FFFFFF" fill-rule="nonzero">
                    <path d="M41.9304,4.54747351e-13 C16.3249134,4.54747351e-13 0,11.1286254 0,32.73 C0,55.4016967 18.2241309,71.8604 41.9304,71.8604 C65.6363296,71.8604 83.8604,55.4016375 83.8604,32.73 C83.8604,11.1286715 67.535532,4.54747351e-13 41.9304,4.54747351e-13 Z M41.9304,4 C65.579312,4 79.8604,13.7354256 79.8604,32.73 C79.8604,53.0964702 63.512944,67.8604 41.9304,67.8604 C20.3475111,67.8604 4,53.0965226 4,32.73 C4,13.7353873 18.2811308,4 41.9304,4 Z" id="Stroke-38"></path>
                    <path d="M141.13044,4.54747351e-13 C115.524953,4.54747351e-13 99.20004,11.1286254 99.20004,32.73 C99.20004,55.4016967 117.424171,71.8604 141.13044,71.8604 C164.83637,71.8604 183.06044,55.4016375 183.06044,32.73 C183.06044,11.1286715 166.735572,4.54747351e-13 141.13044,4.54747351e-13 Z M141.13044,4 C164.779352,4 179.06044,13.7354256 179.06044,32.73 C179.06044,53.0964702 162.712984,67.8604 141.13044,67.8604 C119.547551,67.8604 103.20004,53.0965226 103.20004,32.73 C103.20004,13.7353873 117.481171,4 141.13044,4 Z" id="Stroke-40"></path>
                    <path d="M104.38892,25.88036 C105.493489,25.88036 106.38892,26.7757905 106.38892,27.88036 C106.38892,28.9347218 105.573042,29.7985251 104.538182,29.8748743 L104.38892,29.88036 L78.38892,29.88036 C77.2843505,29.88036 76.38892,28.9849295 76.38892,27.88036 C76.38892,26.8259982 77.2047978,25.9621949 78.2396577,25.8858457 L78.38892,25.88036 L104.38892,25.88036 Z" id="Stroke-42"></path>
                </g>
            </g>
        </g>
    </g>
</svg>