<?xml version="1.0" encoding="UTF-8"?>
<svg width="512px" height="512px" viewBox="0 0 512 512" version="1.1" xmlns="http://www.w3.org/2000/svg" xmlns:xlink="http://www.w3.org/1999/xlink">
    <title>男生-青</title>
    <defs>
        <polygon id="path-1" points="0 361.1824 268.064 361.1824 268.064 0 0 0"></polygon>
    </defs>
    <g id="男生-青" stroke="none" stroke-width="1" fill="none" fill-rule="evenodd">
        <rect id="矩形" fill="#C4FFFD" x="0" y="0" width="512" height="514"></rect>
        <g id="编组" transform="translate(122.000000, 151.000000)">
            <path d="M239.36728,144.39392 C239.36728,203.37472 192.77208,251.18832 135.29408,251.18832 C77.81608,251.18832 31.22088,203.37472 31.22088,144.39392 C31.22088,85.41272 77.81608,37.59912 135.29408,37.59912 C192.77208,37.59912 239.36728,85.41272 239.36728,144.39392" id="Fill-1" fill="#025483"></path>
            <mask id="mask-2" fill="white">
                <use xlink:href="#path-1"></use>
            </mask>
            <g id="Clip-4"></g>
            <polygon id="Fill-3" fill="#FFBBBA" mask="url(#mask-2)" points="108.7804 296.974 156.7956 296.974 156.7956 233.858 108.7804 233.858"></polygon>
            <path d="M108.5744,264.738 C118.169108,267.244865 126.788175,268.498297 134.4316,268.498297 C142.075025,268.498297 149.461025,267.244865 156.5896,264.738 L156.5896,201.622 L108.5744,201.622 L108.5744,264.738 Z" id="Fill-1" fill="#FB918D" mask="url(#mask-2)"></path>
            <path d="M50.26004,188.62908 C50.26004,204.85788 39.00884,218.01428 25.13004,218.01428 C11.25124,218.01428 4e-05,204.85788 4e-05,188.62908 C4e-05,172.40028 11.25124,159.24428 25.13004,159.24428 C39.00884,159.24428 50.26004,172.40028 50.26004,188.62908" id="Fill-5" fill="#FFBBBA" mask="url(#mask-2)"></path>
            <path d="M268.06412,188.62908 C268.06412,204.85788 256.81292,218.01428 242.93412,218.01428 C229.05532,218.01428 217.80412,204.85788 217.80412,188.62908 C217.80412,172.40028 229.05532,159.24428 242.93412,159.24428 C256.81292,159.24428 268.06412,172.40028 268.06412,188.62908" id="Fill-7" fill="#FFBBBA" mask="url(#mask-2)"></path>
            <path d="M133.85704,260.92552 C108.3728,260.92552 36.91224,236.66992 36.91224,183.12872 C36.91224,129.58752 39.02104,43.42552 133.85704,43.42552 C228.69304,43.42552 230.80144,129.58752 230.80144,183.12872 C230.80144,236.66992 159.34128,260.92552 133.85704,260.92552 Z" id="Fill-9" fill="#FFBBBA" mask="url(#mask-2)"></path>
            <path d="M133.85704,253.92552 C108.3728,253.92552 36.91224,229.66992 36.91224,176.12872 C36.91224,122.58752 39.02104,36.42552 133.85704,36.42552 C228.69304,36.42552 230.80144,122.58752 230.80144,176.12872 C230.80144,229.66992 159.34128,253.92552 133.85704,253.92552 Z" id="Fill-9" fill="#FFD5D6" mask="url(#mask-2)"></path>
            <g id="编组-2" mask="url(#mask-2)">
                <g transform="translate(74.999770, 126.999827)">
                    <path d="M66.28367,57.3823729 C66.28367,61.3823729 50.99207,61.3823729 50.99207,57.3823729 C50.99207,52.9823729 54.41527,49.7367729 58.63767,49.7367729 C62.86047,49.7367729 66.28367,52.9823729 66.28367,57.3823729" id="Fill-12" fill="#E8B39F" fill-rule="evenodd"></path>
                    <path d="M12.2338911,-0.410355491 C12.7392363,-2.56091853 14.8922753,-3.89463114 17.0428383,-3.38928599 L34.5409263,0.644171451 C36.691789,1.14823971 38.0267796,3.30048649 37.5227114,5.45134918 C37.0186431,7.60221187 34.8663963,8.93720252 32.7155337,8.43313426 L15.2128216,4.3985917 C13.0622586,3.89324654 11.728546,1.74020755 12.2338911,-0.410355491 Z" id="Stroke-15" fill="#502B31" fill-rule="nonzero"></path>
                    <path d="M105.726744,-0.448272525 C106.25303,1.69726191 104.94037,3.86320044 102.794835,4.3894866 L99.6962114,5.11516709 L87.1509489,7.98789588 L85.2752963,8.42813137 C83.1271967,8.94384732 80.9677474,7.62053886 80.4520315,5.4724392 C79.9363155,3.32433953 81.259624,1.1648903 83.4077236,0.649174349 L86.1781477,0.00177242726 L100.286342,-3.235436 L100.888985,-3.38018089 C103.034519,-3.90646704 105.200458,-2.59380696 105.726744,-0.448272525 Z" id="Stroke-16" fill="#502B31" fill-rule="nonzero"></path>
                    <path d="M68.1930227,76.7633741 C68.8258648,75.8580649 70.0727828,75.6371867 70.9780919,76.2700288 C71.8834011,76.9028709 72.1042793,78.1497888 71.4714372,79.055098 C65.5940161,87.4630143 56.4487158,91.0382809 46.7368759,89.7482214 C45.6419242,89.6027749 44.8721982,88.5972336 45.0176446,87.5022819 C45.1630911,86.4073303 46.1686325,85.6376042 47.2635841,85.7830507 C55.5529795,86.8841617 63.211048,83.8903139 68.1930227,76.7633741 Z" id="Stroke-28" fill="#D06946" fill-rule="nonzero" transform="translate(58.416201, 82.956954) rotate(22.000000) translate(-58.416201, -82.956954) "></path>
                    <path d="M25.5290798,28.6679373 C26.1619219,27.7626282 27.4088399,27.5417499 28.314149,28.174592 C29.2194582,28.8074341 29.4403364,30.054352 28.8074943,30.9596612 C22.9300733,39.3675775 13.7847729,42.9428441 4.07293298,41.6527846 C2.97798133,41.5073381 2.2082553,40.5017968 2.35370176,39.4068451 C2.49914823,38.3118935 3.50468957,37.5421675 4.59964122,37.6876139 C12.8890366,38.7887249 20.5471051,35.7948772 25.5290798,28.6679373 Z" id="Stroke-28备份" fill="#000000" fill-rule="nonzero" transform="translate(15.752259, 34.861518) rotate(-338.000000) translate(-15.752259, -34.861518) "></path>
                    <path d="M108.52908,28.6679373 C109.161922,27.7626282 110.40884,27.5417499 111.314149,28.174592 C112.219458,28.8074341 112.440336,30.054352 111.807494,30.9596612 C105.930073,39.3675775 96.7847729,42.9428441 87.072933,41.6527846 C85.9779813,41.5073381 85.2082553,40.5017968 85.3537018,39.4068451 C85.4991482,38.3118935 86.5046896,37.5421675 87.5996412,37.6876139 C95.8890366,38.7887249 103.547105,35.7948772 108.52908,28.6679373 Z" id="Stroke-28备份-2" fill="#000000" fill-rule="nonzero" transform="translate(98.752259, 34.861518) rotate(-338.000000) translate(-98.752259, -34.861518) "></path>
                </g>
            </g>
            <path d="M209.62564,360.58964 L53.95084,360.58964 C53.95084,319.93924 86.90404,286.98604 127.55404,286.98604 L136.02204,286.98604 C176.67204,286.98604 209.62564,319.93924 209.62564,360.58964" id="Fill-13" fill="#FFBBBA" mask="url(#mask-2)"></path>
            <path d="M168.11316,293.9826 C162.48556,307.2666 149.34916,316.5862 134.01396,316.5862 C118.03116,316.5862 104.59636,306.4634 99.40356,292.2794 C72.48076,303.3966 53.71596,329.9846 53.71596,360.9226 L53.71596,361.1822 L210.11596,361.1822 L210.11596,360.9226 C210.11596,331.4706 192.98956,305.9494 168.11316,293.9826" id="Fill-14" fill="#66B5DB" mask="url(#mask-2)"></path>
            <path d="M49.14956,42.14312 C46.01156,39.80992 160.61356,16.36192 184.74356,27.77192 C185.18036,21.54432 188.09996,26.46312 195.10116,28.16032 C201.71836,29.76472 209.20996,29.46352 206.30796,32.04512 C225.85396,46.84392 239.14276,82.85152 233.70316,78.64312 C240.50316,98.35072 216.12796,98.18552 216.12796,98.18552 L213.53916,126.99072 C213.53916,126.99072 191.41036,79.13392 185.71356,75.75232 C162.99556,105.38792 139.202,117.966936 108.628,118.496536 C110.9988,111.873336 115.206462,105.78992 117.634462,99.00792 C100.923662,120.96312 82.0156376,136.65752 61.0468376,147.69352 C61.3204376,138.65912 61.75756,130.62352 62.04076,121.28032 C50.94756,135.26232 44.2092379,137.826242 36.91224,145.17552 C38.59624,126.55832 35.10624,118.96952 36.91224,99.00792 C38.59624,94.3565523 33.48716,56.24272 49.14956,42.14312 Z" id="Fill-17" fill="#FFBBBA" mask="url(#mask-2)"></path>
            <path d="M17.71316,94.47672 C22.35076,70.53792 33.48716,49.24272 49.14956,35.14312 C46.01156,32.80992 42.86116,30.46752 39.69716,28.11552 C62.31636,14.67072 87.80116,8.12192 113.70916,9.20392 C112.22156,6.15192 110.72636,3.08392 109.22356,-7.99999998e-05 C135.07796,2.30752 160.61356,9.36192 184.74356,20.77192 C185.18036,14.54432 183.89276,8.09512 181.20356,3.16592 C187.08196,9.05832 188.09996,19.46312 195.10116,21.16032 C201.71836,22.76472 214.47516,15.86832 221.15356,13.47072 C218.20516,16.09072 209.20996,22.46352 206.30796,25.04512 C225.85396,39.84392 238.67436,59.63032 249.89836,84.17272 C244.54116,80.02792 239.14276,75.85152 233.70316,71.64312 C240.50316,91.35072 244.68636,107.10032 246.49916,127.81632 C240.05916,115.63912 216.12796,91.18552 216.12796,91.18552 L213.53916,119.99072 C213.53916,119.99072 191.41036,71.13392 185.71356,67.75232 C162.99556,97.38792 141.68916,111.58512 111.11516,112.11472 C113.48596,105.49152 115.88476,98.78992 118.31276,92.00792 C101.60196,113.96312 82.17476,130.80872 61.20596,141.84472 C61.47956,132.81032 61.75756,123.62352 62.04076,114.28032 C50.94756,128.26232 38.27356,139.51072 24.52756,147.69352 C26.21156,129.07632 27.95476,109.80432 29.76076,89.84272 C25.73476,91.39112 21.71876,92.93592 17.71316,94.47672" id="Fill-17" fill="#025483" mask="url(#mask-2)"></path>
            <path d="M50.26004,118.7822 C47.31604,134.3822 42.31604,155.7822 42.91604,166.1822 L35.87404,162.0594 L31.71604,133.7822 L50.26004,118.7822 Z" id="Fill-18" fill="#025483" mask="url(#mask-2)"></path>
            <path d="M209.91588,80.3822 C212.85988,95.9822 224.85988,156.1822 224.25988,166.5822 L231.30188,162.4594 L228.69268,93.9822 L209.91588,80.3822 Z" id="Fill-19" fill="#025483" mask="url(#mask-2)"></path>
        </g>
        <g id="编组-3" transform="translate(254.168000, 312.909063) rotate(-180.000000) translate(-254.168000, -312.909063) translate(197.168000, 300.909063)"></g>
    </g>
</svg>