<?xml version="1.0" encoding="UTF-8"?>
<svg width="512px" height="512px" viewBox="0 0 512 512" version="1.1" xmlns="http://www.w3.org/2000/svg" xmlns:xlink="http://www.w3.org/1999/xlink">
    <title>男生-蓝</title>
    <defs>
        <polygon id="path-1" points="0.20412 0.06188 50.464 0.06188 50.464 58.83188 0.20412 58.83188"></polygon>
        <polygon id="path-3" points="0.31792283 0.3952 22.39712 0.3952 22.39712 14.03472 0.31792283 14.03472"></polygon>
    </defs>
    <g id="男生-蓝" stroke="none" stroke-width="1" fill="none" fill-rule="evenodd">
        <rect id="矩形" fill="#C3ECFE" x="0" y="0" width="512" height="512"></rect>
        <g id="编组" transform="translate(122.000000, 143.000000)">
            <polygon id="Fill-1" fill="#FFBBBA" points="108.7804 304.5964 156.7956 304.5964 156.7956 241.4804 108.7804 241.4804"></polygon>
            <path d="M108.5744,272.738 C118.169108,275.244865 126.788175,276.498297 134.4316,276.498297 C142.075025,276.498297 149.461025,275.244865 156.5896,272.738 L156.5896,209.622 L108.5744,209.622 L108.5744,272.738 Z" id="Fill-1" fill="#FB918D"></path>
            <g transform="translate(0.000000, 0.004800)">
                <path d="M50.26004,196.24668 C50.26004,212.47548 39.00884,225.63188 25.13004,225.63188 C11.25124,225.63188 4e-05,212.47548 4e-05,196.24668 C4e-05,180.01788 11.25124,166.86188 25.13004,166.86188 C39.00884,166.86188 50.26004,180.01788 50.26004,196.24668" id="Fill-2" fill="#FFBBBA"></path>
                <g transform="translate(217.600000, 166.800000)">
                    <mask id="mask-2" fill="white">
                        <use xlink:href="#path-1"></use>
                    </mask>
                    <g id="Clip-7"></g>
                    <path d="M50.46412,29.44668 C50.46412,45.67548 39.21292,58.83188 25.33412,58.83188 C11.45532,58.83188 0.20412,45.67548 0.20412,29.44668 C0.20412,13.21788 11.45532,0.06188 25.33412,0.06188 C39.21292,0.06188 50.46412,13.21788 50.46412,29.44668" id="Fill-6" fill="#FFBBBA" mask="url(#mask-2)"></path>
                </g>
                <path d="M133.85704,268.54312 C108.3728,268.54312 36.91224,244.28752 36.91224,190.74632 C36.91224,137.20512 39.02104,51.04312 133.85704,51.04312 C228.69304,51.04312 230.80144,137.20512 230.80144,190.74632 C230.80144,244.28752 159.34128,268.54312 133.85704,268.54312 Z" id="Fill-10" fill="#FFBBBA"></path>
                <path d="M133.85704,261.54312 C108.3728,261.54312 36.91224,237.28752 36.91224,183.74632 C36.91224,130.20512 39.02104,44.04312 133.85704,44.04312 C228.69304,44.04312 230.80144,130.20512 230.80144,183.74632 C230.80144,237.28752 159.34128,261.54312 133.85704,261.54312 Z" id="Fill-10" fill="#FFD5D6"></path>
                <path d="M141.28344,191.9998 C141.28344,195.9998 125.99184,195.9998 125.99184,191.9998 C125.99184,187.5998 129.41504,184.3542 133.63744,184.3542 C137.86024,184.3542 141.28344,187.5998 141.28344,191.9998" id="Fill-16" fill="#E8B39F"></path>
                <path d="M210.62564,368.20724 L54.95084,368.20724 C54.95084,327.55684 87.90404,294.60364 128.55404,294.60364 L137.02204,294.60364 C177.67204,294.60364 210.62564,327.55684 210.62564,368.20724" id="Fill-18" fill="#FFBBBA"></path>
                <path d="M169.11316,301.6002 C163.48556,314.8842 150.34916,324.2038 135.01396,324.2038 C119.03116,324.2038 105.59636,314.081 100.40356,299.897 C73.48076,311.0142 54.71596,337.6022 54.71596,368.5402 L54.71596,368.7998 L211.11596,368.7998 L211.11596,368.5402 C211.11596,339.0882 193.98956,313.567 169.11316,301.6002" id="Fill-20" fill="#1C2B40"></path>
                <path d="M87.2336612,134.207072 C87.7390063,132.056509 89.8920453,130.722796 92.0426083,131.228141 L109.540696,135.261599 C111.691559,135.765667 113.02655,137.917914 112.522481,140.068776 C112.018413,142.219639 109.866166,143.55463 107.715304,143.050561 L90.2125917,139.016019 C88.0620286,138.510674 86.728316,136.357635 87.2336612,134.207072 Z" id="Stroke-22" fill="#4D4437" fill-rule="nonzero"></path>
                <path d="M180.726514,134.169155 C181.2528,136.314689 179.94014,138.480628 177.794605,139.006914 L174.545657,139.767204 L161.231868,142.819255 L160.275066,143.045559 C158.126967,143.561274 155.967517,142.237966 155.451801,140.089866 C154.936086,137.941767 156.259394,135.782317 158.407494,135.266601 L163.242453,134.144896 L173.484506,131.802081 L175.888755,131.237246 C178.034289,130.71096 180.200228,132.02362 180.726514,134.169155 Z" id="Stroke-24" fill="#4D4437" fill-rule="nonzero"></path>
                <path d="M112.21608,169.32756 C112.21608,174.55996 107.97448,178.80156 102.74208,178.80156 C97.50968,178.80156 93.26808,174.55996 93.26808,169.32756 C93.26808,164.09516 97.50968,159.85316 102.74208,159.85316 C107.97448,159.85316 112.21608,164.09516 112.21608,169.32756" id="Fill-26" fill="#000000"></path>
                <path d="M174.44596,169.32756 C174.44596,174.55996 170.20436,178.80156 164.97156,178.80156 C159.73956,178.80156 155.49756,174.55996 155.49756,169.32756 C155.49756,164.09516 159.73956,159.85316 164.97156,159.85316 C170.20436,159.85316 174.44596,164.09516 174.44596,169.32756" id="Fill-28" fill="#000000"></path>
                <path d="M147.637313,201.902023 C147.94711,200.841788 149.057741,200.233437 150.117977,200.543233 C151.178212,200.85303 151.786563,201.963661 151.476767,203.023897 C149.948726,208.253399 146.159438,212.756235 141.267956,215.154702 C136.376234,217.553288 130.49612,217.791822 125.426429,215.797307 C124.398546,215.392917 123.893104,214.231831 124.297493,213.203949 C124.701883,212.176066 125.862969,211.670624 126.890851,212.075013 C130.914738,213.658089 135.624225,213.467043 139.506924,211.563218 C143.389416,209.659494 146.424421,206.052977 147.637313,201.902023 Z" id="Stroke-30" fill="#D06946" fill-rule="nonzero"></path>
                <path d="M31.69696,87.99316 C28.69576,109.29676 34.35816,160.98396 38.31376,173.42236 L45.27456,177.20836 L49.91576,120.82996 L49.91576,93.31116 L31.69696,87.99316 Z" id="Fill-32" fill="#1F448B"></path>
                <path d="M235.57076,87.99316 C238.36716,109.29676 233.02956,160.98396 229.34396,173.42236 L222.94916,177.20836 L218.71596,120.82996 L218.71596,93.31116 L235.57076,87.99316 Z" id="Fill-34" fill="#1F448B"></path>
                <path d="M50.26004,99.12536 C51.4647336,116.15496 44.08944,113.30056 69.94944,116.15496 L77.13704,100.12536 L76.00664,116.73936 C92.63784,118.13656 112.46264,118.21336 133.75064,118.21336 C143.84944,118.21336 153.61944,118.19616 162.87544,118.02896 L162.43944,92.50336 L171.76984,117.81176 C211.75024,116.55736 218.71596,120.22976 218.71596,99.12536 C218.71596,71.78856 206.92544,19.21856 133.75064,19.21856 C60.57584,19.21856 48.3278734,71.8121702 50.26004,99.12536 Z" id="Fill-36" fill="#FFBBBA"></path>
                <path d="M133.75064,12.21856 C60.57584,12.21856 27.35864,60.76056 27.35864,88.09736 C27.35864,104.29816 44.08944,106.30056 69.94944,109.15496 L77.13704,92.12536 L76.00664,109.73936 C92.63784,111.13656 112.46264,111.21336 133.75064,111.21336 C143.84944,111.21336 153.61944,111.19616 162.87544,111.02896 L162.43944,85.50336 L171.76984,110.81176 C211.75024,109.55736 240.14264,109.20176 240.14264,88.09736 C240.14264,60.76056 206.92544,12.21856 133.75064,12.21856" id="Fill-36" fill="#1F448B"></path>
                <g transform="translate(125.600000, 0.000000)">
                    <mask id="mask-4" fill="white">
                        <use xlink:href="#path-3"></use>
                    </mask>
                    <g id="Clip-39"></g>
                    <path d="M0.39772,0.39512 C6.01012,1.51032 9.63372,6.82032 12.64372,11.68672 C14.95412,7.66552 18.23132,4.20352 22.12052,1.67592 C23.01772,6.02552 21.69612,10.77392 18.68092,14.03472 C14.44572,13.53832 10.08332,12.97272 6.38732,10.84632 C2.69092,8.71992 -0.20548,4.61672 0.39772,0.39512" id="Fill-38" fill="#1F448B" mask="url(#mask-4)"></path>
                </g>
            </g>
        </g>
    </g>
</svg>