<?xml version="1.0" encoding="UTF-8"?>
<svg width="512px" height="512px" viewBox="0 0 512 512" version="1.1" xmlns="http://www.w3.org/2000/svg" xmlns:xlink="http://www.w3.org/1999/xlink">
    <title>男生-紫</title>
    <g id="男生-紫" stroke="none" stroke-width="1" fill="none" fill-rule="evenodd">
        <rect id="矩形" fill="#DFD6FE" x="0" y="0" width="512" height="512"></rect>
        <g id="编组-3" transform="translate(122.000000, 176.000000)">
            <path d="" id="路径-4" stroke="#979797"></path>
            <g id="编组备份">
                <g id="编组" transform="translate(0.000000, 0.156000)">
                    <path d="M240.12584,167.3998 L25.13024,167.3998 L25.13024,98.7426 C25.13024,44.3434 69.22944,0.2442 123.62864,0.2442 L141.62744,0.2442 C196.02664,0.2442 240.12584,44.3434 240.12584,98.7426 L240.12584,167.3998 Z" id="Fill-1" fill="#0A0A0A"></path>
                    <polygon id="Clip-4" points="0 336 268.064 336 268.064 0.244 0 0.244"></polygon>
                    <polygon id="Fill-3" fill="#FFBBBA" points="108.7804 271.7916 156.7956 271.7916 156.7956 208.6756 108.7804 208.6756"></polygon>
                    <path d="M108.7804,240.466 C117.607842,242.587102 125.610376,243.647652 132.788,243.647652 C139.965624,243.647652 147.968158,242.587102 156.7956,240.466 L156.7956,207.466 L108.7804,207.466 L108.7804,240.466 Z" id="Fill-3" fill="#FB918D"></path>
                    <path d="M50.25984,163.44668 C50.25984,179.67548 39.00904,192.83188 25.13024,192.83188 C11.25144,192.83188 0.00024,179.67548 0.00024,163.44668 C0.00024,147.21788 11.25144,134.06188 25.13024,134.06188 C39.00904,134.06188 50.25984,147.21788 50.25984,163.44668" id="Fill-5" fill="#FFBBBA"></path>
                    <path d="M268.06412,163.44668 C268.06412,179.67548 256.81292,192.83188 242.93412,192.83188 C229.05532,192.83188 217.80412,179.67548 217.80412,163.44668 C217.80412,147.21788 229.05532,134.06188 242.93412,134.06188 C256.81292,134.06188 268.06412,147.21788 268.06412,163.44668" id="Fill-7" fill="#FFBBBA"></path>
                    <path d="M133.85724,235.74312 C108.3734,235.74312 36.91244,211.48752 36.91244,157.94632 C36.91244,104.40512 39.02124,18.24312 133.85724,18.24312 C228.69324,18.24312 230.80164,104.40512 230.80164,157.94632 C230.80164,211.48752 159.34108,235.74312 133.85724,235.74312 Z" id="Fill-9" fill="#FFBBBA"></path>
                    <path d="M133.85724,228.74312 C108.3734,228.74312 36.91244,204.48752 36.91244,150.94632 C36.91244,97.40512 39.02124,11.24312 133.85724,11.24312 C228.69324,11.24312 230.80164,97.40512 230.80164,150.94632 C230.80164,204.48752 159.34108,228.74312 133.85724,228.74312 Z" id="Fill-9" fill="#FFD5D6"></path>
                    <path d="M209.62548,335.40724 L53.95068,335.40724 C53.95068,294.75684 86.90388,261.80364 127.55428,261.80364 L136.02188,261.80364 C176.67228,261.80364 209.62548,294.75684 209.62548,335.40724" id="Fill-15" fill="#FFBBBA"></path>
                    <path d="M168.11336,268.8002 C162.48536,282.0842 149.34936,291.4038 134.01376,291.4038 C118.03096,291.4038 104.59656,281.281 99.40376,267.097 C72.48096,278.2142 53.71576,304.8022 53.71576,335.7402 L53.71576,335.9998 L210.11576,335.9998 L210.11576,335.7402 C210.11576,306.2882 192.98976,280.767 168.11336,268.8002" id="Fill-16" fill="#1F1F1F"></path>
                </g>
                <g id="编组" transform="translate(24.800000, 12.156000)"></g>
            </g>
        </g>
        <g id="编组-2" transform="translate(196.999770, 277.999827)">
            <path d="M66.28367,57.3823729 C66.28367,61.3823729 50.99207,61.3823729 50.99207,57.3823729 C50.99207,52.9823729 54.41527,49.7367729 58.63767,49.7367729 C62.86047,49.7367729 66.28367,52.9823729 66.28367,57.3823729" id="Fill-12" fill="#E8B39F"></path>
            <path d="M12.2338911,-0.410355491 C12.7392363,-2.56091853 14.8922753,-3.89463114 17.0428383,-3.38928599 L34.5409263,0.644171451 C36.691789,1.14823971 38.0267796,3.30048649 37.5227114,5.45134918 C37.0186431,7.60221187 34.8663963,8.93720252 32.7155337,8.43313426 L15.2128216,4.3985917 C13.0622586,3.89324654 11.728546,1.74020755 12.2338911,-0.410355491 Z" id="Stroke-15" fill="#502B31" fill-rule="nonzero"></path>
            <path d="M105.726744,-0.448272525 C106.25303,1.69726191 104.94037,3.86320044 102.794835,4.3894866 L99.6962114,5.11516709 L87.1509489,7.98789588 L85.2752963,8.42813137 C83.1271967,8.94384732 80.9677474,7.62053886 80.4520315,5.4724392 C79.9363155,3.32433953 81.259624,1.1648903 83.4077236,0.649174349 L86.1781477,0.00177242726 L100.286342,-3.235436 L100.888985,-3.38018089 C103.034519,-3.90646704 105.200458,-2.59380696 105.726744,-0.448272525 Z" id="Stroke-16" fill="#502B31" fill-rule="nonzero"></path>
            <path d="M68.1930227,76.7633741 C68.8258648,75.8580649 70.0727828,75.6371867 70.9780919,76.2700288 C71.8834011,76.9028709 72.1042793,78.1497888 71.4714372,79.055098 C65.5940161,87.4630143 56.4487158,91.0382809 46.7368759,89.7482214 C45.6419242,89.6027749 44.8721982,88.5972336 45.0176446,87.5022819 C45.1630911,86.4073303 46.1686325,85.6376042 47.2635841,85.7830507 C55.5529795,86.8841617 63.211048,83.8903139 68.1930227,76.7633741 Z" id="Stroke-28" fill="#D06946" fill-rule="nonzero" transform="translate(58.416201, 82.956954) rotate(22.000000) translate(-58.416201, -82.956954) "></path>
            <path d="M25.5290798,28.6679373 C26.1619219,27.7626282 27.4088399,27.5417499 28.314149,28.174592 C29.2194582,28.8074341 29.4403364,30.054352 28.8074943,30.9596612 C22.9300733,39.3675775 13.7847729,42.9428441 4.07293298,41.6527846 C2.97798133,41.5073381 2.2082553,40.5017968 2.35370176,39.4068451 C2.49914823,38.3118935 3.50468957,37.5421675 4.59964122,37.6876139 C12.8890366,38.7887249 20.5471051,35.7948772 25.5290798,28.6679373 Z" id="Stroke-28备份" fill="#000000" fill-rule="nonzero" transform="translate(15.752259, 34.861518) rotate(-338.000000) translate(-15.752259, -34.861518) "></path>
            <path d="M108.52908,28.6679373 C109.161922,27.7626282 110.40884,27.5417499 111.314149,28.174592 C112.219458,28.8074341 112.440336,30.054352 111.807494,30.9596612 C105.930073,39.3675775 96.7847729,42.9428441 87.072933,41.6527846 C85.9779813,41.5073381 85.2082553,40.5017968 85.3537018,39.4068451 C85.4991482,38.3118935 86.5046896,37.5421675 87.5996412,37.6876139 C95.8890366,38.7887249 103.547105,35.7948772 108.52908,28.6679373 Z" id="Stroke-28备份-2" fill="#000000" fill-rule="nonzero" transform="translate(98.752259, 34.861518) rotate(-338.000000) translate(-98.752259, -34.861518) "></path>
        </g>
        <g id="编组-14" transform="translate(146.000000, 151.000000)">
            <path d="M227.067456,131.160456 C208.214496,131.160456 192.876096,115.822056 192.876096,96.967416 C192.876096,95.112696 194.379696,93.607416 196.236096,93.607416 L237.802656,93.607416 C256.655616,93.607416 271.994016,108.945816 271.994016,127.800456 C271.994016,129.655176 270.490416,131.160456 268.634016,131.160456 L227.067456,131.160456 Z" id="Fill-633" fill="#F5C874"></path>
            <path d="M196.236096,91.16688 C194.381376,91.16688 192.876096,89.6616 192.876096,87.80688 C192.876096,68.95392 208.214496,53.61552 227.067456,53.61552 L268.634016,53.61552 C270.490416,53.61552 271.994016,55.11912 271.994016,56.97552 C271.994016,75.82848 256.655616,91.16688 237.802656,91.16688 L196.236096,91.16688 Z" id="Fill-635" fill="#F5C874"></path>
            <path d="M3.36,113.6016 C1.50528,113.6016 4.77484718e-13,112.09632 4.77484718e-13,110.2416 C4.77484718e-13,94.46304 3.27096,79.212 9.72216,64.91184 C27.53688,25.4772 66.99336,6.82121026e-14 110.2416,6.82121026e-14 C118.6584,6.82121026e-14 127.03152,0.95088 135.12408,2.82576 C169.93872,10.84608 198.80448,35.43624 212.33856,68.6028 C217.74312,81.81936 220.4832,95.82888 220.4832,110.2416 C220.4832,112.09632 218.9796,113.6016 217.1232,113.6016 L3.36,113.6016 Z" id="Fill-658" fill="#EA7F8F"></path>
            <path d="M178.0128,84.151704 C148.5372,84.151704 124.5552,60.171384 124.5552,30.694104 C124.5552,21.465864 126.93744,12.388824 131.4432,4.440744 C132.04968,3.372264 133.17696,2.738904 134.3664,2.738904 C134.61504,2.738904 134.86872,2.767464 135.12072,2.824584 C169.93872,10.846584 198.80448,35.435064 212.33856,68.603304 C212.90136,69.982584 212.48808,71.568504 211.32384,72.497544 C201.90576,80.013864 190.0752,84.151704 178.0128,84.151704" id="Fill-660" fill="#F5C874"></path>
            <path d="M3.36,113.6016 C1.50528,113.6016 2.68585154e-13,112.09632 2.68585154e-13,110.2416 C2.68585154e-13,94.46304 3.27096,79.212 9.72216,64.91184 C10.10688,64.05672 10.83096,63.4032 11.718,63.10584 C12.06576,62.98992 12.42528,62.9328 12.7848,62.9328 C13.34256,62.9328 13.89864,63.07224 14.3976,63.3444 C31.53696,72.73056 42.1848,90.70152 42.1848,110.2416 C42.1848,112.09632 40.67952,113.6016 38.8248,113.6016 L3.36,113.6016 Z" id="Fill-666" fill="#F5C874"></path>
        </g>
    </g>
</svg>