<?xml version="1.0" encoding="UTF-8"?>
<svg width="512px" height="512px" viewBox="0 0 512 512" version="1.1" xmlns="http://www.w3.org/2000/svg" xmlns:xlink="http://www.w3.org/1999/xlink">
    <title>男生-粉</title>
    <defs>
        <polygon id="path-1" points="0 336 268.064 336 268.064 0.244 0 0.244"></polygon>
    </defs>
    <g id="男生-粉" stroke="none" stroke-width="1" fill="none" fill-rule="evenodd">
        <rect id="矩形" fill="#FEC9D1" x="0" y="0" width="512" height="512"></rect>
        <g id="编组" transform="translate(122.000000, 175.000000)">
            <g transform="translate(0.000000, 0.156000)">
                <path d="M240.12584,167.3998 L25.13024,167.3998 L25.13024,98.7426 C25.13024,44.3434 69.22944,0.2442 123.62864,0.2442 L141.62744,0.2442 C196.02664,0.2442 240.12584,44.3434 240.12584,98.7426 L240.12584,167.3998 Z" id="Fill-1" fill="#515271"></path>
                <mask id="mask-2" fill="white">
                    <use xlink:href="#path-1"></use>
                </mask>
                <g id="Clip-4"></g>
                <polygon id="Fill-3" fill="#FFBBBA" mask="url(#mask-2)" points="108.7804 271.7916 156.7956 271.7916 156.7956 208.6756 108.7804 208.6756"></polygon>
                <path d="M108.7804,241.466 C117.607842,243.587102 125.610376,244.647652 132.788,244.647652 C139.965624,244.647652 147.968158,243.587102 156.7956,241.466 L156.7956,208.466 L108.7804,208.466 L108.7804,241.466 Z" id="Fill-3" fill="#FB918D" mask="url(#mask-2)"></path>
                <path d="M50.25984,163.44668 C50.25984,179.67548 39.00904,192.83188 25.13024,192.83188 C11.25144,192.83188 0.00024,179.67548 0.00024,163.44668 C0.00024,147.21788 11.25144,134.06188 25.13024,134.06188 C39.00904,134.06188 50.25984,147.21788 50.25984,163.44668" id="Fill-5" fill="#FFBBBA" mask="url(#mask-2)"></path>
                <path d="M268.06412,163.44668 C268.06412,179.67548 256.81292,192.83188 242.93412,192.83188 C229.05532,192.83188 217.80412,179.67548 217.80412,163.44668 C217.80412,147.21788 229.05532,134.06188 242.93412,134.06188 C256.81292,134.06188 268.06412,147.21788 268.06412,163.44668" id="Fill-7" fill="#FFBBBA" mask="url(#mask-2)"></path>
                <path d="M133.85724,235.74312 C107.3734,235.74312 36.91244,211.48752 36.91244,157.94632 C36.91244,104.40512 39.02124,18.24312 133.85724,18.24312 C228.69324,18.24312 230.80164,104.40512 230.80164,157.94632 C230.80164,211.48752 160.34108,235.74312 133.85724,235.74312 Z" id="Fill-9" fill="#FFBBBA" mask="url(#mask-2)"></path>
                <path d="M133.85724,228.74312 C107.3734,228.74312 36.91244,204.48752 36.91244,150.94632 C36.91244,97.40512 38.01328,26.9489944 132.84928,26.9489944 C227.68528,26.9489944 230.80164,97.40512 230.80164,150.94632 C230.80164,204.48752 160.34108,228.74312 133.85724,228.74312 Z" id="Fill-9" fill="#FFD5D6" mask="url(#mask-2)"></path>
                <path d="M102.74244,128.65316 C109.079034,128.65316 114.21604,133.790615 114.21604,140.12756 C114.21604,141.232129 113.320609,142.12756 112.21604,142.12756 C111.111471,142.12756 110.21604,141.232129 110.21604,140.12756 C110.21604,135.999676 106.869817,132.65316 102.74244,132.65316 C98.6143607,132.65316 95.26804,135.999578 95.26804,140.12756 C95.26804,141.232129 94.3726095,142.12756 93.26804,142.12756 C92.1634705,142.12756 91.26804,141.232129 91.26804,140.12756 C91.26804,133.790465 96.4051956,128.65316 102.74244,128.65316 Z" id="Stroke-12" fill="#000000" fill-rule="nonzero" mask="url(#mask-2)"></path>
                <path d="M164.97212,128.65316 C171.308989,128.65316 176.44572,133.79049 176.44572,140.12756 C176.44572,141.232129 175.550289,142.12756 174.44572,142.12756 C173.341151,142.12756 172.44572,141.232129 172.44572,140.12756 C172.44572,135.999525 169.099746,132.65316 164.97212,132.65316 C160.844041,132.65316 157.49772,135.999578 157.49772,140.12756 C157.49772,141.232129 156.602289,142.12756 155.49772,142.12756 C154.393151,142.12756 153.49772,141.232129 153.49772,140.12756 C153.49772,133.790465 158.634876,128.65316 164.97212,128.65316 Z" id="Stroke-13" fill="#000000" fill-rule="nonzero" mask="url(#mask-2)"></path>
                <path d="M141.28328,159.1998 C141.28328,163.1998 125.99168,163.1998 125.99168,159.1998 C125.99168,154.7998 129.41488,151.5542 133.63768,151.5542 C137.86008,151.5542 141.28328,154.7998 141.28328,159.1998" id="Fill-14" fill="#E8B39F" mask="url(#mask-2)"></path>
                <path d="M209.62548,335.40724 L53.95068,335.40724 C53.95068,294.75684 86.90388,261.80364 127.55428,261.80364 L136.02188,261.80364 C176.67228,261.80364 209.62548,294.75684 209.62548,335.40724" id="Fill-15" fill="#FFBBBA" mask="url(#mask-2)"></path>
                <path d="M168.11336,268.8002 C162.48536,282.0842 149.34936,291.4038 134.01376,291.4038 C118.03096,291.4038 104.59656,281.281 99.40376,267.097 C72.48096,278.2142 53.71576,304.8022 53.71576,335.7402 L53.71576,335.9998 L210.11576,335.9998 L210.11576,335.7402 C210.11576,306.2882 192.98976,280.767 168.11336,268.8002" id="Fill-16" fill="#FEE9E6" mask="url(#mask-2)"></path>
            </g>
            <g transform="translate(24.800000, 12.156000)">
                <path d="M62.4338761,89.4070079 C62.9392565,87.2564531 65.0923173,85.9227758 67.2428721,86.4281561 L84.7408389,90.4615851 C86.891709,90.9656216 88.2267314,93.1178487 87.7226949,95.2687189 C87.2186584,97.419589 85.0664313,98.7546114 82.9155611,98.2505749 L66.0676822,94.3690059 L65.4127279,94.2160039 C63.2621731,93.7106235 61.9284958,91.5575627 62.4338761,89.4070079 Z" id="Stroke-20" fill="#614536" fill-rule="nonzero"></path>
                <path d="M155.926314,89.3691546 C156.4526,91.5146891 155.13994,93.6806276 152.994405,94.2069137 L151.687402,94.517494 L136.716774,97.9526556 L135.474813,98.2455714 C133.326706,98.7612577 131.167275,97.4379195 130.651589,95.2898128 C130.135902,93.141706 131.45924,90.982275 133.607347,90.4665886 L139.176514,89.1768585 L150.306508,86.6243838 L151.088555,86.4372463 C153.234089,85.9109601 155.400028,87.2236202 155.926314,89.3691546 Z" id="Stroke-22" fill="#614536" fill-rule="nonzero"></path>
                <path d="M185.82548,31.8424 C185.82548,45.428 173.84508,48.6 108.48068,48.6 C43.11588,48.6 31.13508,45.428 31.13508,31.8424 C31.13508,18.2568 65.76388,7.2436 108.48068,7.2436 C151.19708,7.2436 185.82548,18.2568 185.82548,31.8424" id="Fill-24" fill="#FFBBBA"></path>
                <path d="M185.82548,24.8424 C185.82548,38.428 173.84508,41.6 108.48068,41.6 C43.11588,41.6 31.13508,38.428 31.13508,24.8424 C31.13508,11.2568 65.76388,0.2436 108.48068,0.2436 C151.19708,0.2436 185.82548,11.2568 185.82548,24.8424" id="Fill-24" fill="#515271"></path>
                <path d="M19.2032,40.34824 C21.5956,35.53784 24.318,30.75344 28.3548,27.20784 C32.3912,23.66224 41.9884,21.91104 47.2116,23.16744 C12.1124,87.19984 26.8492,138.39984 12.1472,136.79304 C7.5492,135.34984 -0.44,126.81904 0.33,122.06184 C4.8156,94.35664 7.0064,64.87064 19.2032,40.34824" id="Fill-26" fill="#515271"></path>
                <path d="M196.40084,40.34824 C194.00844,35.53784 191.28604,30.75344 187.24924,27.20784 C183.21284,23.66224 173.61564,21.91104 168.39204,23.16744 C203.49164,87.19984 188.75484,138.39984 203.45684,136.79304 C208.05484,135.34984 216.04404,126.81904 215.27444,122.06184 C210.78844,94.35664 208.59804,64.87064 196.40084,40.34824" id="Fill-28" fill="#515271"></path>
            </g>
        </g>
        <g id="编组-3" transform="translate(228.000000, 348.000000)">
            <path d="M1.24382443,3.14744541 L54.1265624,3.14744541 C51.8579958,19.7158151 43.1477817,28 27.9959201,28 C12.8440585,28 3.92669329,19.7158151 1.24382443,3.14744541 Z" id="路径-8备份" fill="#FFBBBA"></path>
            <path d="M3.99343762,0 L51.1834274,0 C52.8402852,-6.5072775e-06 54.1834339,1.34314216 54.1834339,3 C54.1834339,3.29102702 54.1410868,3.58050545 54.0577235,3.85933746 C50.4420091,15.9531125 41.7547413,22 27.9959201,22 C14.2852675,22 5.34000996,15.9953778 1.16014743,3.98613329 C0.615523333,2.42135109 1.44252077,0.711337441 3.00730166,0.16670959 C3.32436996,0.0563527818 3.65771313,6.16715873e-17 3.99343762,0 Z" id="路径-8备份" fill="#FFFFFF"></path>
        </g>
    </g>
</svg>