<?xml version="1.0" encoding="UTF-8"?>
<svg width="512px" height="512px" viewBox="0 0 512 512" version="1.1" xmlns="http://www.w3.org/2000/svg" xmlns:xlink="http://www.w3.org/1999/xlink">
    <title>女生-黄</title>
    <defs>
        <polygon id="path-1" points="8e-05 0.14264 73.044 0.14264 73.044 73.18744 8e-05 73.18744"></polygon>
        <polygon id="path-3" points="0 350.8 313.844 350.8 313.844 0.2536 0 0.2536"></polygon>
    </defs>
    <g id="女生-黄" stroke="none" stroke-width="1" fill="none" fill-rule="evenodd">
        <rect id="矩形" fill="#FEECD6" x="0" y="0" width="512" height="512"></rect>
        <g id="编组" transform="translate(99.000000, 161.000000)">
            <g transform="translate(0.000000, 0.146400)">
                <path d="M73.04408,41.06504 C73.04408,61.23584 56.69288,77.58744 36.52208,77.58744 C16.35168,77.58744 8e-05,61.23584 8e-05,41.06504 C8e-05,20.89424 16.35168,4.54264 36.52208,4.54264 C56.69288,4.54264 73.04408,20.89424 73.04408,41.06504" id="Fill-1" fill="#BEB6A9"></path>
                <g transform="translate(240.800000, 4.400000)">
                    <mask id="mask-2" fill="white">
                        <use xlink:href="#path-1"></use>
                    </mask>
                    <g id="Clip-4"></g>
                    <path d="M73.04408,36.66504 C73.04408,56.83584 56.69288,73.18744 36.52208,73.18744 C16.35168,73.18744 8e-05,56.83584 8e-05,36.66504 C8e-05,16.49424 16.35168,0.14264 36.52208,0.14264 C56.69288,0.14264 73.04408,16.49424 73.04408,36.66504" id="Fill-3" fill="#BEB6A9" mask="url(#mask-2)"></path>
                </g>
                <mask id="mask-4" fill="white">
                    <use xlink:href="#path-3"></use>
                </mask>
                <g id="Clip-6"></g>
                <polygon id="Fill-5" fill="#FFBBBA" mask="url(#mask-4)" points="131.9884 286.5916 180.0036 286.5916 180.0036 223.4756 131.9884 223.4756"></polygon>
                <path d="M131.7804,255.4756 C140.607842,257.596702 148.610376,258.657252 155.788,258.657252 C162.965624,258.657252 170.968158,257.596702 179.7956,255.4756 L179.7956,222.4756 L131.7804,222.4756 L131.7804,255.4756 Z" id="Fill-3" fill="#FB918D" mask="url(#mask-4)"></path>
                <path d="M279.13136,118.64316 C279.13136,184.02836 224.41616,237.03316 156.92216,237.03316 C89.42776,237.03316 34.71296,184.02836 34.71296,118.64316 C34.71296,53.25836 89.42776,0.25316 156.92216,0.25316 C224.41616,0.25316 279.13136,53.25836 279.13136,118.64316" id="Fill-7" fill="#BEB6A9" mask="url(#mask-4)"></path>
                <path d="M73.46768,178.24668 C73.46768,194.47548 62.21648,207.63188 48.33768,207.63188 C34.45888,207.63188 23.20768,194.47548 23.20768,178.24668 C23.20768,162.01788 34.45888,148.86188 48.33768,148.86188 C62.21648,148.86188 73.46768,162.01788 73.46768,178.24668" id="Fill-8" fill="#FFBBBA" mask="url(#mask-4)"></path>
                <path d="M291.2718,178.24668 C291.2718,194.47548 280.0206,207.63188 266.1418,207.63188 C252.263,207.63188 241.0118,194.47548 241.0118,178.24668 C241.0118,162.01788 252.263,148.86188 266.1418,148.86188 C280.0206,148.86188 291.2718,162.01788 291.2718,178.24668" id="Fill-10" fill="#FFBBBA" mask="url(#mask-4)"></path>
                <path d="M157.06472,250.54312 C131.58052,250.54312 60.11992,226.28752 60.11992,172.74632 C60.11992,119.20512 103.52392,56.65432 157.06472,56.65432 C210.60552,56.65432 254.00912,119.20512 254.00912,172.74632 C254.00912,226.28752 182.54892,250.54312 157.06472,250.54312 Z" id="Fill-12" fill="#FFBBBA" mask="url(#mask-4)"></path>
                <path d="M157.06472,243.54312 C131.58052,243.54312 60.11992,219.28752 60.11992,165.74632 C60.11992,112.20512 103.52392,49.65432 157.06472,49.65432 C210.60552,49.65432 254.00912,112.20512 254.00912,165.74632 C254.00912,219.28752 182.54892,243.54312 157.06472,243.54312 Z" id="Fill-12" fill="#FFD5D6" mask="url(#mask-4)"></path>
                <path d="M120.94968,143.45316 C127.286599,143.45316 132.42368,148.59054 132.42368,154.92756 C132.42368,156.032129 131.528249,156.92756 130.42368,156.92756 C129.319111,156.92756 128.42368,156.032129 128.42368,154.92756 C128.42368,150.799627 125.077408,147.45316 120.94968,147.45316 C116.821952,147.45316 113.47568,150.799627 113.47568,154.92756 C113.47568,156.032129 112.580249,156.92756 111.47568,156.92756 C110.371111,156.92756 109.47568,156.032129 109.47568,154.92756 C109.47568,148.59054 114.612761,143.45316 120.94968,143.45316 Z" id="Stroke-15" fill="#000000" fill-rule="nonzero" mask="url(#mask-4)"></path>
                <path d="M192.1794,143.45316 C198.516369,143.45316 203.6538,148.590591 203.6538,154.92756 C203.6538,156.032129 202.758369,156.92756 201.6538,156.92756 C200.549231,156.92756 199.6538,156.032129 199.6538,154.92756 C199.6538,150.799729 196.307231,147.45316 192.1794,147.45316 C188.051672,147.45316 184.7054,150.799627 184.7054,154.92756 C184.7054,156.032129 183.809969,156.92756 182.7054,156.92756 C181.600831,156.92756 180.7054,156.032129 180.7054,154.92756 C180.7054,148.59054 185.842481,143.45316 192.1794,143.45316 Z" id="Stroke-16" fill="#000000" fill-rule="nonzero" mask="url(#mask-4)"></path>
                <path d="M164.49112,173.9998 C164.49112,177.9998 149.19952,177.9998 149.19952,173.9998 C149.19952,169.5998 152.62272,166.3542 156.84512,166.3542 C161.06792,166.3542 164.49112,169.5998 164.49112,173.9998" id="Fill-17" fill="#E8B39F" mask="url(#mask-4)"></path>
                <path d="M63.1809938,159.208208 C47.9937938,85.5322079 92.09076,29.2828 166.33196,29.2828 C209.43476,29.2828 277.381428,72.5574079 250.421828,159.208208 C221.888228,154.471408 183.16476,124.4312 158.70716,67.0412 C133.70876,126.1596 89.2141938,151.618208 63.1809938,159.208208 Z" id="Fill-18" fill="#FFBBBA" mask="url(#mask-4)"></path>
                <path d="M158.70716,56.0412 C133.70876,115.1596 87.90036,146.0088 61.86716,153.5988 C46.67996,79.9228 92.09076,21.2828 166.33196,21.2828 C209.43476,21.2828 279.41676,66.948 252.45716,153.5988 C223.92356,148.862 183.16476,113.4312 158.70716,56.0412" id="Fill-18" fill="#BEB6A9" mask="url(#mask-4)"></path>
                <path d="M232.83332,350.20724 L77.15852,350.20724 C77.15852,309.55684 110.11172,276.60364 150.76172,276.60364 L159.22972,276.60364 C199.87972,276.60364 232.83332,309.55684 232.83332,350.20724" id="Fill-19" fill="#FFBBBA" mask="url(#mask-4)"></path>
                <path d="M191.3208,283.6002 C185.6932,296.8842 172.5568,306.2038 157.2216,306.2038 C141.2388,306.2038 127.804,296.081 122.6112,281.897 C95.6884,293.0142 76.9236,319.6022 76.9236,350.5402 L76.9236,350.7998 L233.3236,350.7998 L233.3236,350.5402 C233.3236,321.0882 216.1972,295.567 191.3208,283.6002" id="Fill-20" fill="#FFFFFD" mask="url(#mask-4)"></path>
            </g>
            <g transform="translate(114.000000, 116.946400)" fill="#5C4432" fill-rule="nonzero">
                <path d="M17.6877571,-1.67246736 C18.7892931,-1.75427339 19.7485813,-0.92761892 19.8303874,0.173917077 C19.9121934,1.27545307 19.0855389,2.23474133 17.9840029,2.31654736 C11.9984602,2.76106619 6.17653248,4.10327855 1.10038156,6.20439173 C0.0797859983,6.6268352 -1.09002827,6.14193712 -1.51247173,5.12134156 C-1.9349152,4.100746 -1.45001712,2.93093173 -0.429421559,2.50848827 C5.04841508,0.241109899 11.2866932,-1.19708967 17.6877571,-1.67246736 Z" id="Stroke-24"></path>
                <path d="M68.6970524,-1.67246665 C75.0979287,-1.1970722 81.3365708,0.241186831 86.8142216,2.50848827 C87.8348171,2.93093173 88.3197152,4.100746 87.8972717,5.12134156 C87.4748283,6.14193712 86.305014,6.6268352 85.2844184,6.20439173 C80.2084557,4.10335644 74.3861567,2.7610813 68.4007876,2.31654665 C67.299252,2.23473537 66.4726021,1.27544317 66.5544133,0.173907563 C66.6325059,-0.877558243 67.5101214,-1.67856 68.5477938,-1.67805176 L68.6970524,-1.67246665 Z" id="Stroke-26"></path>
            </g>
        </g>
        <g id="编组-13" transform="translate(239.000000, 352.000000)">
            <path d="M0.22,5.65228588 C1.61184502,22.9654286 7.20381836,31.622 16.99592,31.622 C26.7880216,31.622 32.5622607,22.9654286 34.3186371,5.65228588 L0.22,5.65228588 Z" id="路径-8" fill="#FFBBBA"></path>
            <path d="M0,5.65228588 C1.8953751,15.5128548 7.62837618,20.4431393 17.1990032,20.4431393 C26.7696303,20.4431393 32.5026314,15.5128548 34.3980065,5.65228588 L0,5.65228588 Z" id="路径-6备份" fill="#F7715F"></path>
            <path d="M4.54747351e-13,5.65228588 L34.3980065,5.65228588 C30.4729864,10.4726489 24.7399853,12.8828304 17.1990032,12.8828304 C9.65802115,12.8828304 3.92502007,10.4726489 4.54747351e-13,5.65228588 Z" id="路径-5备份" fill="#FFFEFF"></path>
            <path d="M0.22,5.65228588 C3.86023224,1.88409529 7.5901511,0 11.4097566,0 C15.2293621,0 17.1827766,1.88409529 17.27,5.65228588 L0.22,5.65228588 Z" id="路径-7备份-2" fill="#FC6D63"></path>
            <path d="M17.2686371,5.65228588 C20.9088694,1.88409529 24.6387883,0 28.4583937,0 C32.2779992,0 34.2314137,1.88409529 34.3186371,5.65228588 L17.2686371,5.65228588 Z" id="路径-7备份-3" fill="#FC6D63" transform="translate(25.793637, 2.826143) scale(-1, 1) translate(-25.793637, -2.826143) "></path>
        </g>
    </g>
</svg>